#!OML:ASF F:\VICON\USERDATA\INSTALL\rory3\rory3.ASF
:FULLY-SPECIFIED
:DEGREES
30
root 2.89497 16.7385 -0.0176695 15.3952 5.07794 11.3279
lowerback -7.2751 1.59554 0.528678
upperback -1.67861 2.32704 -7.40047
thorax 2.67644 1.2056 -7.85466
lowerneck -2.15881 15.0182 5.49574
upperneck 47.3424 25.1714 -2.2594
head 20.1386 10.9576 2.22383
rclavicle 1.41634e-014 4.13472e-014
rhumerus -36.0449 6.34682 -94.5948
rradius 42.7247
rwrist -37.2277
rhand -12.098 -49.0098
rfingers 7.12502
rthumb 13.9626 -78.5209
lclavicle 1.41634e-014 4.13472e-014
lhumerus -27.5839 -20.1685 82.1747
lradius 42.2399
lwrist 72.7764
lhand -38.6492 -13.7745
lfingers 7.12502
lthumb -11.6654 15.8808
rfemur -50.6191 23.8096 -6.62421
rtibia 73.819
rfoot 2.46016 10.9369
rtoes -43.3604
lfemur -32.1681 -6.964 -36.3295
ltibia 38.2554
lfoot -17.0025 10.4668
ltoes 6.54851
31
root 2.89555 16.7418 -0.017168 15.4059 5.05928 11.3052
lowerback -7.30883 1.6366 0.552942
upperback -1.69533 2.38088 -7.40517
thorax 2.68667 1.23288 -7.86784
lowerneck -2.17289 15.0027 5.47995
upperneck 47.3608 25.118 -2.18292
head 20.1254 10.9434 2.25102
rclavicle 1.799e-014 -9.14409e-015
rhumerus -36.0677 6.37635 -94.6474
rradius 42.7019
rwrist -37.7792
rhand -12.5338 -48.235
rfingers 7.12502
rthumb 13.5426 -77.7746
lclavicle 1.799e-014 -9.14409e-015
lhumerus -27.5453 -20.2009 82.2119
lradius 42.1556
lwrist 72.6962
lhand -38.7848 -13.5913
lfingers 7.12502
lthumb -11.7961 16.0565
rfemur -50.6399 23.829 -6.62572
rtibia 73.7878
rfoot 2.59945 10.8414
rtoes -42.9675
lfemur -32.2307 -6.96565 -36.2943
ltibia 38.3004
lfoot -17.0662 10.3646
ltoes 7.2669
32
root 2.89729 16.7428 -0.0180319 15.4128 5.08211 11.1973
lowerback -7.35668 1.70025 0.705437
upperback -1.70573 2.45639 -7.40972
thorax 2.71981 1.27283 -7.95329
lowerneck -2.06935 14.9235 5.56468
upperneck 47.3131 24.9829 -2.22082
head 20.081 10.9103 2.18324
rclavicle 1.14301e-015 -3.29983e-014
rhumerus -36.0629 6.11645 -94.5434
rradius 42.6531
rwrist -37.4808
rhand -12.7979 -47.8204
rfingers 7.12502
rthumb 13.288 -77.3768
lclavicle 1.14301e-015 -3.29983e-014
lhumerus -27.5687 -20.3395 82.2549
lradius 42.1437
lwrist 72.6272
lhand -38.6711 -13.5344
lfingers 7.12502
lthumb -11.6865 16.1197
rfemur -50.6789 23.845 -6.53542
rtibia 73.7754
rfoot 2.81764 10.7597
rtoes -42.4739
lfemur -32.2461 -6.97699 -36.1746
ltibia 38.3614
lfoot -17.1896 10.3221
ltoes 7.16459
33
root 2.89863 16.7431 -0.0185468 15.3959 5.12592 11.0748
lowerback -7.32034 1.72863 0.877368
upperback -1.72638 2.47924 -7.40677
thorax 2.68827 1.28481 -8.04917
lowerneck -2.03582 14.8712 5.60043
upperneck 47.2889 24.8955 -2.23833
head 20.0597 10.8836 2.14891
rclavicle 3.65267e-014 2.34566e-014
rhumerus -36.0853 5.92601 -94.4749
rradius 42.6483
rwrist -37.0839
rhand -12.9916 -47.7538
rfingers 7.12502
rthumb 13.1013 -77.3223
lclavicle 3.65267e-014 2.34566e-014
lhumerus -27.5709 -20.4615 82.2537
lradius 42.0741
lwrist 72.6744
lhand -38.3778 -13.7768
lfingers 7.12502
lthumb -11.4036 15.8931
rfemur -50.6194 23.8362 -6.36842
rtibia 73.7541
rfoot 2.72725 10.7803
rtoes -42.673
lfemur -32.2552 -6.99816 -36.0289
ltibia 38.4204
lfoot -17.3043 10.2369
ltoes 7.43048
34
root 2.89642 16.7364 -0.0176322 15.4077 5.12076 11.0866
lowerback -7.32239 1.73667 0.851208
upperback -1.74453 2.49165 -7.42362
thorax 2.67198 1.2903 -8.05103
lowerneck -2.08784 14.8585 5.58138
upperneck 47.3343 24.8538 -2.16338
head 20.0771 10.8675 2.18489
rclavicle -3.13583e-014 -3.37934e-014
rhumerus -36.1053 5.99058 -94.5574
rradius 42.6594
rwrist -37.4089
rhand -12.6657 -48.3614
rfingers 7.12502
rthumb 13.4154 -77.9094
lclavicle -3.13583e-014 -3.37934e-014
lhumerus -27.5683 -20.5205 82.2287
lradius 42.0573
lwrist 72.7584
lhand -38.202 -14.0219
lfingers 7.12502
lthumb -11.2341 15.6573
rfemur -50.6236 23.7969 -6.35689
rtibia 73.7813
rfoot 2.52093 10.8619
rtoes -43.0557
lfemur -32.2714 -6.96932 -36.0452
ltibia 38.4472
lfoot -17.2383 10.2941
ltoes 6.90785
35
root 2.89503 16.7306 -0.017827 15.4136 5.08641 11.0895
lowerback -7.34779 1.73584 0.818296
upperback -1.74824 2.49336 -7.41959
thorax 2.68099 1.29091 -8.02668
lowerneck -2.113 14.8687 5.54962
upperneck 47.2949 24.8725 -2.17977
head 20.0546 10.8689 2.18447
rclavicle 2.96686e-014 -1.51076e-014
rhumerus -36.0675 5.98967 -94.5324
rradius 42.6671
rwrist -37.2228
rhand -12.2403 -48.6804
rfingers 7.12502
rthumb 13.8255 -78.201
lclavicle 2.96686e-014 -1.51076e-014
lhumerus -27.5948 -20.4581 82.1938
lradius 42.1156
lwrist 72.7613
lhand -38.1692 -13.6899
lfingers 7.12502
lthumb -11.2024 15.9911
rfemur -50.6769 23.8147 -6.37634
rtibia 73.8124
rfoot 2.42652 10.9522
rtoes -43.369
lfemur -32.2753 -6.91535 -36.0719
ltibia 38.4573
lfoot -17.1141 10.4505
ltoes 5.99649
36
root 2.89572 16.7308 -0.0182729 15.3608 5.04813 11.0621
lowerback -7.31416 1.74276 0.841571
upperback -1.73249 2.50029 -7.40902
thorax 2.68015 1.29478 -8.02854
lowerneck -2.13018 14.8618 5.5214
upperneck 47.1856 24.8867 -2.28101
head 20.0043 10.8636 2.13997
rclavicle -2.38542e-015 -1.98785e-014
rhumerus -35.9785 5.82626 -94.3779
rradius 42.6296
rwrist -36.4457
rhand -11.738 -48.6251
rfingers 7.12502
rthumb 14.3094 -78.1121
lclavicle -2.38542e-015 -1.98785e-014
lhumerus -27.5788 -20.4179 82.1764
lradius 42.119
lwrist 72.7865
lhand -38.2367 -13.3107
lfingers 7.12502
lthumb -11.2676 16.3667
rfemur -50.6465 23.8954 -6.35501
rtibia 73.7975
rfoot 2.47463 10.9579
rtoes -43.3091
lfemur -32.2279 -6.86022 -36.0758
ltibia 38.4395
lfoot -17.0337 10.6059
ltoes 5.17373
37
root 2.89678 16.7321 -0.0159586 15.2992 5.00698 11.0893
lowerback -7.30174 1.75203 0.815763
upperback -1.70342 2.51606 -7.41221
thorax 2.70494 1.30364 -8.01528
lowerneck -2.1041 14.8487 5.53333
upperneck 47.116 24.89 -2.37229
head 19.9762 10.8616 2.09165
rclavicle 6.5102e-015 -3.22031e-014
rhumerus -35.9453 5.79 -94.3144
rradius 42.6245
rwrist -36.2304
rhand -11.3637 -48.8031
rfingers 7.12502
rthumb 14.6701 -78.2641
lclavicle 6.5102e-015 -3.22031e-014
lhumerus -27.5011 -20.3928 82.1849
lradius 42.029
lwrist 72.7613
lhand -38.28 -13.5615
lfingers 7.12502
lthumb -11.3093 16.1136
rfemur -50.591 23.9461 -6.37709
rtibia 73.7759
rfoot 2.60825 10.8694
rtoes -42.8528
lfemur -32.1401 -6.83166 -36.1216
ltibia 38.4258
lfoot -17.0651 10.6246
ltoes 5.20025
38
root 2.89852 16.7417 -0.0119716 15.2293 5.12255 11.1527
lowerback -7.2979 1.70296 0.767224
upperback -1.67863 2.45519 -7.41273
thorax 2.71777 1.27333 -7.99382
lowerneck -2.04296 14.8653 5.60002
upperneck 47.1209 24.9412 -2.4346
head 20.0001 10.8872 2.06127
rclavicle -2.83268e-015 -3.29983e-014
rhumerus -35.9867 5.73029 -94.2366
rradius 42.7371
rwrist -35.9374
rhand -11.9165 -48.1909
rfingers 7.12502
rthumb 14.1375 -77.6899
lclavicle -2.83268e-015 -3.29983e-014
lhumerus -27.5215 -20.3555 82.2021
lradius 41.9922
lwrist 72.6792
lhand -38.4142 -13.6286
lfingers 7.12502
lthumb -11.4387 16.0394
rfemur -50.3962 23.9061 -6.3527
rtibia 73.7282
rfoot 2.80462 10.7712
rtoes -42.3289
lfemur -32.0359 -6.9136 -36.1462
ltibia 38.4274
lfoot -17.2016 10.3573
ltoes 6.7429
39
root 2.89901 16.7494 -0.0112383 15.2233 5.28014 11.1677
lowerback -7.30098 1.63945 0.752798
upperback -1.68453 2.37012 -7.3955
thorax 2.69953 1.22968 -7.97554
lowerneck -2.02226 14.8857 5.63247
upperneck 47.1545 24.9848 -2.44379
head 20.0323 10.9066 2.06281
rclavicle 3.21534e-014 -5.96354e-015
rhumerus -36.0282 5.68942 -94.1827
rradius 42.8089
rwrist -35.6167
rhand -12.6635 -47.1049
rfingers 7.12502
rthumb 13.4176 -76.6528
lclavicle 3.21534e-014 -5.96354e-015
lhumerus -27.6145 -20.3327 82.2103
lradius 42.0605
lwrist 72.6895
lhand -38.4994 -13.4034
lfingers 7.12502
lthumb -11.5209 16.26
rfemur -50.2582 23.8312 -6.28101
rtibia 73.6915
rfoot 2.76943 10.8178
rtoes -42.6788
lfemur -32.0151 -7.02566 -36.1054
ltibia 38.4078
lfoot -17.2962 10.1184
ltoes 7.74589
40
root 2.90022 16.742 -0.0148619 15.3098 5.17674 11.1136
lowerback -7.34255 1.66501 0.794939
upperback -1.71765 2.40009 -7.3828
thorax 2.69369 1.24417 -7.98259
lowerneck -2.21888 14.923 5.50555
upperneck 47.343 25.0097 -2.22733
head 20.1337 10.8983 2.213
rclavicle -1.09332e-015 4.41302e-014
rhumerus -36.0115 5.75766 -94.1912
rradius 42.796
rwrist -35.6234
rhand -12.8608 -46.7507
rfingers 7.12502
rthumb 13.2273 -76.311
lclavicle -1.09332e-015 4.41302e-014
lhumerus -27.5732 -20.2808 82.202
lradius 42.0297
lwrist 72.7082
lhand -38.3896 -13.5776
lfingers 7.12502
lthumb -11.4151 16.0916
rfemur -50.4557 23.8313 -6.32133
rtibia 73.7215
rfoot 2.57064 10.9892
rtoes -43.3694
lfemur -32.0961 -6.985 -36.0831
ltibia 38.3782
lfoot -17.2493 10.2694
ltoes 6.78502
